<?xml version="1.0" encoding="UTF-8" standalone="no"?>
<svg width="284px" height="41px" viewBox="0 0 284 41" version="1.1" xmlns="http://www.w3.org/2000/svg" xmlns:xlink="http://www.w3.org/1999/xlink" xmlns:sketch="http://www.bohemiancoding.com/sketch/ns">
    <title>Place card</title>
    <description>Created with Sketch (http://www.bohemiancoding.com/sketch)</description>
    <defs></defs>
    <g id="Homepage" stroke="none" stroke-width="1" fill="none" fill-rule="evenodd" sketch:type="MSPage">
        <g id="Home" sketch:type="MSArtboardGroup" transform="translate(-144.000000, -1325.000000)">
            <g id="Tell-your-whole-life-story" sketch:type="MSLayerGroup" transform="translate(0.000000, 1098.000000)">
                <g id="entry" transform="translate(111.000000, 60.000000)">
                    <g id="Place-card" transform="translate(33.000000, 167.000000)">
                        <path d="M26.2608154,18.3632268 C26.735212,17.3407822 27,16.2013134 27,15 C27,10.5817218 23.4182782,7 19,7 C14.5817218,7 11,10.5817218 11,15 C11,16.5728764 11.4539154,18.0397351 12.237897,19.2767269 L19.5,34 L26.2608154,18.3632268 Z" id="Oval-1" stroke="#FFFFFF" sketch:type="MSShapeGroup"></path>
                        <circle id="Oval-2" fill="#FFFFFF" sketch:type="MSShapeGroup" cx="19" cy="15" r="3"></circle>
                        <text id="Coffee-down-the-stre" sketch:type="MSTextLayer" font-family="Open Sans" font-size="10" font-style="italic" font-weight="normal" fill="#FFFFFF">
                            <tspan x="44" y="16">Coffee down the street</tspan>
                        </text>
                        <text id="123,-Down-the-Street" sketch:type="MSTextLayer" font-family="Open Sans" font-size="9" font-weight="260" fill="#FFFFFF">
                            <tspan x="44" y="34">123, Down the Street, NYC, NY</tspan>
                        </text>
                        <rect id="Rectangle-9" stroke-opacity="0.1" stroke="#FFFFFF" sketch:type="MSShapeGroup" x="0" y="0" width="284" height="41" rx="2"></rect>
                        <g id="icon_3359" transform="translate(243.000000, 8.000000)" fill="#FFFFFF" sketch:type="MSShapeGroup">
                            <path d="M5.551,7.597 C5.433,7.627 5.3132,7.6532 5.1886,7.6714 C3.6944,7.891 2.351,7.1668 2.1878,6.054 L7.5984,5.2598 C7.6672,5.7272 7.514,6.188 7.2054,6.5824 C7.8648,6.3056 8.5802,6.1374 9.3294,6.0978 C9.5166,5.459 9.5752,4.7718 9.4722,4.0702 C9.0904,1.4684 6.6714,-0.3308 4.07,0.051 C1.4684,0.4332 -0.331,2.8516 0.0512,5.4536 C0.3622,7.573 2.0256,9.1594 4.0378,9.468 C4.4208,8.7512 4.9362,8.1172 5.551,7.597 L5.551,7.597 Z M6.0376,2.258 C6.4626,2.1956 6.8576,2.4896 6.9202,2.9144 C6.9826,3.3394 6.6888,3.7346 6.2636,3.797 C5.8386,3.8596 5.4434,3.5658 5.381,3.1406 C5.3188,2.7156 5.6126,2.3204 6.0376,2.258 L6.0376,2.258 Z M2.8196,2.7306 C3.2446,2.6682 3.6396,2.9624 3.702,3.3872 C3.7646,3.8122 3.4706,4.2072 3.0456,4.2698 C2.6204,4.3322 2.2254,4.0384 2.163,3.6132 C2.1004,3.188 2.3946,2.7928 2.8196,2.7306 L2.8196,2.7306 Z" id="Shape"></path>
                            <path d="M15.7364,0.0266 C13.1212,-0.2484 10.7788,1.649 10.5034,4.2638 C10.4338,4.926 10.5056,5.5702 10.691,6.1682 C12.719,6.4926 14.4242,7.7686 15.3404,9.5202 C17.7046,9.4724 19.7202,7.673 19.9734,5.2598 C20.2488,2.6446 18.3516,0.3016 15.7364,0.0266 L15.7364,0.0266 Z M16.241,3.3448 C16.286,2.9174 16.6682,2.6076 17.0956,2.6526 C17.5232,2.6976 17.8328,3.0802 17.7884,3.5076 C17.743,3.9348 17.3608,4.2446 16.9334,4.1996 C16.5058,4.155 16.1958,3.7718 16.241,3.3448 L16.241,3.3448 Z M13.0058,3.0046 C13.0512,2.5772 13.4338,2.2672 13.8608,2.3124 C14.2884,2.3572 14.598,2.7398 14.553,3.1672 C14.5082,3.5944 14.1256,3.9046 13.6982,3.8592 C13.2708,3.8144 12.9616,3.4318 13.0058,3.0046 L13.0058,3.0046 Z M14.931,7.6866 C13.4288,7.5286 12.307,6.494 12.4244,5.3756 L17.8628,5.9476 C17.7454,7.0656 16.4322,7.8444 14.931,7.6866 L14.931,7.6866 Z" id="Shape"></path>
                            <path d="M9.5724,18.071 C12.6612,18.1104 15.1984,15.6386 15.2384,12.5498 C15.2782,9.4606 12.8062,6.9236 9.717,6.8834 C6.6276,6.8432 4.0906,9.3154 4.0506,12.4046 C4.0106,15.494 6.483,18.0308 9.5724,18.071 L9.5724,18.071 Z M11.5902,9.8094 C12.0948,9.8156 12.498,10.2302 12.4924,10.735 C12.4858,11.2396 12.0712,11.6436 11.5664,11.637 C11.0616,11.6304 10.6576,11.2162 10.6642,10.7114 C10.6714,10.2064 11.0856,9.8028 11.5902,9.8094 L11.5902,9.8094 Z M12.8428,13.5818 C12.8258,14.9024 11.3738,15.9548 9.6,15.9318 C7.8256,15.9092 6.4012,14.8192 6.4184,13.4984 L12.8428,13.5818 L12.8428,13.5818 Z M7.7688,9.7596 C8.2734,9.7658 8.677,10.1804 8.6706,10.6858 C8.664,11.1904 8.2498,11.594 7.7452,11.5874 C7.24,11.5808 6.8368,11.1666 6.8432,10.6618 C6.8496,10.157 7.2642,9.753 7.7688,9.7596 L7.7688,9.7596 Z" id="Shape"></path>
                        </g>
                        <text id="with-4-friends" sketch:type="MSTextLayer" font-family="Open Sans" font-size="6" font-weight="260" fill="#FFFFFF">
                            <tspan x="235" y="34">with 4 friends</tspan>
                        </text>
                    </g>
                </g>
            </g>
        </g>
    </g>
</svg>