<?xml version="1.0" encoding="utf-8"?>
<!-- Generator: Adobe Illustrator 16.0.0, SVG Export Plug-In . SVG Version: 6.00 Build 0)  -->
<!DOCTYPE svg PUBLIC "-//W3C//DTD SVG 1.1//EN" "http://www.w3.org/Graphics/SVG/1.1/DTD/svg11.dtd">
<svg version="1.1" xmlns="http://www.w3.org/2000/svg" xmlns:xlink="http://www.w3.org/1999/xlink" x="0px" y="0px" width="450px"
	 height="300px" viewBox="0 0 450 300" enable-background="new 0 0 450 300" xml:space="preserve">
<g id="Camera_Standing">
</g>
<g id="Camera_Lying">
</g>
<g id="Colours_1_">
</g>
<g id="Aquarell_1_">
</g>
<g id="Envelope_big_1_">
</g>
<g id="Envelope_small_1_">
</g>
<g id="Airmail_1_">
</g>
<g id="Highlighters_Closed_1_">
</g>
<g id="Highlighters_Open_1_">
</g>
<g id="USB_Stick_1_">
</g>
<g id="Pencil_Small">
</g>
<g id="Pencil_Large">
</g>
<g id="Brush_3_">
</g>
<g id="Notepad_1_">
</g>
<g id="Moleskine_Large_Open">
</g>
<g id="Moleskine_Small_Open_1_">
</g>
<g id="Moleskine_Large">
</g>
<g id="Moleskine_Small_1_">
</g>
<g id="iPad_Mini">
</g>
<g id="MacBook_13_x22_">
</g>
<g id="iMac_1_">
</g>
<g id="Wallet_2_">
</g>
<g id="iPhone_6_Grey">
</g>
<g id="iPhone_6_Silver_1_">
</g>
<g id="iPhone_6_Gold_1_">
</g>
<g id="Wallet_1_">
</g>
<g id="Bills">
</g>
<g id="Coins_1_">
</g>
<g id="Passport_Red_1_">
</g>
<g id="Passport_Blue_1_">
</g>
<g id="Credit_Card_Red">
</g>
<g id="Credit_Card_Blue">
</g>
<g id="Aeroplane_1_">
</g>
<g id="Magic_Mouse_1_">
</g>
<g id="Keyboard">
</g>
<g id="Ruler_1_">
</g>
<g id="Charger_1_">
</g>
<g id="Macbook_13_x22_">
</g>
<g id="Brushes">
</g>
<g id="Pencils">
</g>
<g id="Can">
</g>
<g id="Coffee">
</g>
<g id="Stylus">
</g>
<g id="Wacom_1_">
</g>
<g id="Paperclips_1_">
</g>
<g id="Earbuds_1_">
</g>
<g id="Glasses">
</g>
<g id="Sunglasses">
	
		<line id="border_4_" fill="none" stroke="#333333" stroke-width="4" stroke-linecap="round" stroke-miterlimit="10" x1="423.943" y1="144.821" x2="240.351" y2="156.795"/>
	<g id="earpiece_1_">
		<path fill="#FCC865" d="M82.883,229.656c-7.41,0-8.682-2.628-8.952-5.467c0.188-1.694,7.074-9.891,31.805-28.278
			c17.993-13.378,37.147-25.898,46.58-30.446c17.026-8.209,60.345-9.117,76.652-9.458c2.803-0.059,4.828-0.101,6.008-0.161
			c0.094-0.005,0.185-0.007,0.275-0.007c2.393,0,3.443,1.632,3.475,2.506c0.01,0.268,0.025,0.716-1.046,0.792
			c-0.743,0.053-2.445,0.129-4.88,0.239c-14.439,0.65-52.795,2.378-72.065,7.04c-13.45,3.254-27.417,21.623-39.738,37.83
			c-8.131,10.694-16.538,21.751-21.327,22.883c-7.192,1.7-12.683,2.526-16.784,2.526C82.885,229.656,82.884,229.656,82.883,229.656z
			"/>
		<path fill="#333333" d="M209.83,158.586c-14.76,0.943-32.244,2.446-44.731,4.847C178.08,160.512,195.56,159.213,209.83,158.586
			 M154.493,166.672c-12.202,6.261-24.27,22.133-35.09,36.364c-7.175,9.437-16.104,21.18-20.194,22.147
			c-7.04,1.664-12.38,2.473-16.326,2.473c-5.929,0-6.704-1.699-6.907-3.163c1.181-2.382,9.116-10.838,32.138-27.855
			c17.497-12.935,36.031-25.013,45.071-29.372C153.604,167.063,154.04,166.866,154.493,166.672 M235.251,153.838
			c-0.124,0-0.249,0.003-0.376,0.01c-8.256,0.417-63.19,0.057-83.428,9.814c-20.238,9.758-80.231,53.126-79.508,60.715
			c0.456,4.791,3.65,7.278,10.943,7.278c4.26,0,9.917-0.848,17.246-2.58c12.744-3.012,38.669-55.294,61.076-60.715
			s71.558-6.866,76.617-7.228C242.777,160.778,241.045,153.838,235.251,153.838L235.251,153.838z"/>
	</g>
	
		<line id="border_3_" fill="none" stroke="#333333" stroke-width="4" stroke-linecap="round" stroke-miterlimit="10" x1="35.07" y1="144.821" x2="218.662" y2="156.795"/>
	<g id="earpiece">
		<path fill="#FCC865" d="M376.131,229.656c-4.103,0-9.594-0.826-16.786-2.526c-4.789-1.132-13.196-12.189-21.327-22.883
			c-12.321-16.207-26.288-34.576-39.738-37.83c-19.271-4.662-57.626-6.39-72.065-7.04c-2.435-0.11-4.137-0.186-4.88-0.239
			c-1.071-0.076-1.056-0.525-1.046-0.792c0.031-0.874,1.082-2.506,3.475-2.506c0.091,0,0.182,0.002,0.275,0.007
			c1.18,0.06,3.205,0.102,6.008,0.161c16.308,0.341,59.625,1.249,76.652,9.458c9.433,4.548,28.587,17.068,46.58,30.446
			c24.73,18.387,31.617,26.584,31.803,28.35C384.812,227.028,383.541,229.656,376.131,229.656z"/>
		<path fill="#333333" d="M249.184,158.586c14.269,0.627,31.749,1.926,44.729,4.847
			C281.425,161.031,263.944,159.529,249.184,158.586 M304.521,166.672c0.452,0.193,0.89,0.392,1.309,0.594
			c9.04,4.359,27.574,16.437,45.071,29.372c23.021,17.018,30.957,25.473,32.138,27.855c-0.203,1.464-0.978,3.163-6.907,3.163
			c-3.946,0-9.286-0.809-16.326-2.473c-4.091-0.967-13.02-12.711-20.194-22.147C328.79,188.805,316.724,172.934,304.521,166.672
			 M223.763,153.838c-5.794,0-7.526,6.94-2.571,7.294c5.06,0.362,54.21,1.807,76.617,7.228s48.332,57.703,61.076,60.715
			c7.329,1.732,12.986,2.58,17.246,2.58c7.293,0,10.487-2.487,10.943-7.278c0.724-7.589-59.27-50.958-79.508-60.715
			s-75.172-9.397-83.428-9.814C224.012,153.842,223.887,153.838,223.763,153.838L223.763,153.838z"/>
	</g>
	<g id="nose_2">
		<path fill="#FEF7CE" d="M193.473,155.928c-0.535-0.261-1.018-0.563-1.228-0.776c0.395-0.64,1.525-2.195,2.536-3.585
			c1.459-2.005,2.967-4.079,3.561-5.118c0.748-1.307,0.905-2.397,0.468-3.24c-0.257-0.496-0.832-1.111-2.116-1.233
			c-0.077-0.007-0.158-0.011-0.24-0.011c-1.42,0-3.414,1.183-4.312,1.767c-1.776-0.497-3.281-1.343-3.29-1.731
			c-0.021-0.952,1.063-2.53,1.682-3.264c0.849-0.441,3.468-0.906,6.135-0.906c1.863,0,2.759,0.235,3.069,0.38
			c0.133,1.509,1.428,2.444,2.354,2.925c-0.562,1.701-1.977,5.635-3.896,8.431C196.276,152.36,194.34,154.839,193.473,155.928z
			 M266.06,155.928c-0.868-1.089-2.805-3.568-4.722-6.361c-1.923-2.8-3.336-6.731-3.896-8.431c0.926-0.481,2.221-1.417,2.354-2.925
			c0.311-0.145,1.206-0.38,3.068-0.38c2.667,0,5.286,0.466,6.136,0.907c0.701,0.829,1.703,2.345,1.682,3.264
			c-0.009,0.39-1.514,1.236-3.289,1.731c-0.897-0.584-2.893-1.767-4.312-1.767c-0.082,0-0.163,0.004-0.241,0.011
			c-1.282,0.122-1.857,0.737-2.114,1.232c-0.438,0.843-0.28,1.933,0.467,3.241c0.595,1.041,2.106,3.119,3.568,5.129
			c1.008,1.385,2.135,2.935,2.528,3.573C267.077,155.365,266.596,155.667,266.06,155.928z"/>
		<path fill="#333333" d="M196.668,138.831c1.07,0,1.78,0.083,2.199,0.166c0.331,1.18,1.193,2.02,2.02,2.58
			c-0.221,0.633-0.509,1.416-0.855,2.265c-0.045-0.385-0.156-0.749-0.334-1.092c-0.304-0.586-1.086-1.596-2.908-1.768
			c-0.109-0.01-0.221-0.016-0.336-0.016c-1.481,0-3.333,0.98-4.459,1.675c-0.869-0.281-1.705-0.656-2.095-0.944
			c0.157-0.529,0.675-1.417,1.258-2.145C191.91,139.259,194.094,138.831,196.668,138.831 M262.863,138.831L262.863,138.831
			c2.577,0,4.763,0.43,5.511,0.72c0.539,0.674,1.097,1.59,1.26,2.145c-0.39,0.289-1.227,0.664-2.095,0.945
			c-1.127-0.695-2.978-1.675-4.459-1.675c0,0,0,0-0.001,0c-0.114,0-0.227,0.005-0.335,0.016c-1.822,0.172-2.604,1.182-2.908,1.768
			c-0.178,0.342-0.289,0.706-0.334,1.091c-0.347-0.849-0.635-1.631-0.855-2.264c0.825-0.56,1.688-1.4,2.019-2.58
			C261.084,138.914,261.794,138.831,262.863,138.831 M262.863,136.831c-2.201,0-4.058,0.324-4.058,1.127
			c0,1.762-2.589,2.622-2.589,2.622s1.673,5.732,4.297,9.553c2.623,3.821,5.245,7.016,5.245,7.016s3.075-1.167,2.534-2.25
			c-0.543-1.084-5.15-7.047-6.234-8.945s-0.555-2.846,0.874-2.981c0.048-0.004,0.097-0.007,0.147-0.007
			c1.468,0,4.128,1.848,4.128,1.848s4.434-1.067,4.473-2.79s-2.033-4.066-2.033-4.066
			C268.614,137.293,265.493,136.831,262.863,136.831L262.863,136.831z M196.668,136.831c-2.63,0-5.751,0.463-6.783,1.127
			c0,0-2.072,2.343-2.033,4.066s4.473,2.79,4.473,2.79s2.66-1.848,4.129-1.848c0.05,0,0.099,0.002,0.146,0.007
			c1.43,0.135,1.959,1.084,0.874,2.981c-1.084,1.897-5.692,7.86-6.233,8.945c-0.543,1.084,2.533,2.25,2.533,2.25
			s2.621-3.195,5.245-7.016s4.297-9.553,4.297-9.553s-2.589-0.86-2.589-2.622C200.727,137.155,198.869,136.831,196.668,136.831
			L196.668,136.831z"/>
	</g>
	<path id="nose" fill="#FEF7CE" stroke="#333333" stroke-width="2" stroke-miterlimit="10" d="M205.267,136.535
		c-1.364-0.027-2.025,7.587-7.47,15.504c-6.076,8.837-18.89,19.123-14.011,19.123c3.126,0,10.239-6.867,16.263-14.366
		C210.472,143.821,207.496,136.579,205.267,136.535z M261.735,152.039c-5.444-7.917-6.106-15.531-7.47-15.504
		c-2.23,0.044-5.205,7.287,5.218,20.261c6.023,7.499,13.136,14.366,16.263,14.366C280.625,171.162,267.812,160.876,261.735,152.039z
		"/>
	<path id="glasses" opacity="0.7" fill="#4BA7AF" d="M58.199,106.199c0,0-12.649,12.649-12.649,35.056s0,71.558,46.26,71.558
		s135.165-81.315,113.118-114.203C182.882,65.721,90.726,71.504,58.199,106.199z M401.731,106.199
		c-32.526-34.695-124.683-40.478-146.729-7.589c-22.046,32.888,66.859,114.203,113.119,114.203s46.26-49.151,46.26-71.558
		S401.731,106.199,401.731,106.199z"/>
	<path id="glasses_light" opacity="0.2" fill="#FFFFFF" d="M118.842,78.857l-73.165,73.165c0.24,7.56,0.94,16.262,2.97,24.676
		l99.819-99.818C138.798,76.604,128.728,77.276,118.842,78.857z M50.194,182.198c3.706,11.456,10.376,21.733,22.365,26.965
		L193.644,88.08c-9.879-6.155-23.494-9.711-38.476-10.855L50.194,182.198z M304.79,77.223l-49.528,49.528
		c2.377,5.672,5.803,11.606,10.048,17.599l66.683-66.684C322.772,76.717,313.549,76.557,304.79,77.223z M338.275,78.432
		l-69.971,69.971c6.646,8.682,14.859,17.374,23.891,25.44l84.595-84.595C365.215,84.01,351.871,80.365,338.275,78.432z"/>
	<path id="glasses_border" fill="none" stroke="#333333" stroke-width="4" stroke-miterlimit="10" d="M58.199,106.199
		c0,0-12.649,12.649-12.649,35.056s0,71.558,46.26,71.558s135.165-81.315,113.118-114.203
		C182.882,65.721,90.726,71.504,58.199,106.199z M401.731,106.199c-32.526-34.695-124.683-40.478-146.729-7.589
		c-22.046,32.888,66.859,114.203,113.119,114.203s46.26-49.151,46.26-71.558S401.731,106.199,401.731,106.199z"/>
	<path id="border_1_" fill="none" stroke="#333333" stroke-width="4" stroke-linecap="round" stroke-miterlimit="10" d="
		M210.55,102.856c0,0-7.248-15.179,18.772-15.179c26.021,0,20.6,15.179,20.6,15.179"/>
	
		<line id="border" fill="none" stroke="#333333" stroke-width="4" stroke-linecap="round" stroke-miterlimit="10" x1="173" y1="76" x2="287" y2="76"/>
	<g id="border_2_">
		<path fill="#FEF7CE" d="M36.058,145.14c-1.441-0.176-2.181-0.652-2.197-1.417c-0.037-1.58,0.719-5.125,2.235-5.991
			c1.212-0.692,4.434-2.531,7.063-2.531c1.357,0,2.271,0.478,2.879,1.503c0.313,0.531,0.232,2.516-0.519,4.067
			c-0.366,0.755-0.69,0.958-0.774,0.969c-1.338,0.181-3.368,1.12-5.332,2.027C38.191,144.333,36.523,145.104,36.058,145.14z
			 M423.485,145.14c-0.467-0.036-2.134-0.807-3.355-1.372c-1.963-0.908-3.994-1.846-5.332-2.027
			c-0.085-0.011-0.409-0.214-0.775-0.971c-0.751-1.55-0.831-3.535-0.518-4.065c0.607-1.025,1.521-1.503,2.879-1.503
			c2.628,0,5.851,1.838,7.064,2.531c1.514,0.864,2.271,4.411,2.234,5.991C425.666,144.488,424.926,144.964,423.485,145.14z"/>
		<path fill="#333333" d="M416.384,136.202c2.362,0,5.528,1.806,6.568,2.399c0.904,0.517,1.77,3.402,1.731,5.1
			c-0.001,0.019-0.002,0.033-0.002,0.038c-0.079,0.08-0.416,0.277-1.162,0.388c-0.549-0.146-1.993-0.814-2.97-1.265
			c-1.918-0.887-3.897-1.802-5.364-2.07c-0.548-0.633-1.058-2.868-0.8-3.61C414.684,136.691,415.162,136.202,416.384,136.202
			 M43.159,136.202c1.222,0,1.7,0.489,1.997,0.978c0.259,0.742-0.252,2.978-0.8,3.611c-1.467,0.269-3.446,1.184-5.363,2.07
			c-0.977,0.451-2.421,1.119-2.97,1.265c-0.785-0.116-1.115-0.327-1.158-0.371c0,0-0.005-0.017-0.006-0.056
			c-0.039-1.696,0.826-4.582,1.731-5.099C37.631,138.008,40.794,136.202,43.159,136.202 M416.384,134.202
			c-1.5,0-2.866,0.519-3.739,1.994c-0.897,1.516,0.245,6.297,2.02,6.537c2.262,0.306,7.528,3.409,8.832,3.409
			c0.027,0,0.053-0.001,0.077-0.004c1.309-0.155,3.07-0.668,3.109-2.391s-0.744-5.743-2.739-6.882
			C422.654,136.128,419.272,134.202,416.384,134.202L416.384,134.202z M43.159,134.202c-2.89,0-6.271,1.926-7.56,2.662
			c-1.995,1.139-2.779,5.159-2.739,6.882c0.039,1.723,1.801,2.236,3.109,2.391c0.024,0.003,0.05,0.004,0.077,0.004
			c1.303,0,6.57-3.103,8.832-3.409c1.773-0.24,2.916-5.021,2.02-6.537C46.025,134.722,44.658,134.202,43.159,134.202L43.159,134.202
			z"/>
	</g>
</g>
<g id="Case_1_">
</g>
<g id="Donut_1_">
</g>
</svg>
